<?xml version="1.0" encoding="UTF-8"?>
<svg width="24px" height="24px" viewBox="0 0 24 24" version="1.1" xmlns="http://www.w3.org/2000/svg" xmlns:xlink="http://www.w3.org/1999/xlink">
    <title>ic_info</title>
    <g id="Page-1" stroke="none" stroke-width="1" fill="none" fill-rule="evenodd">
        <g id="ic_info" transform="translate(1.000000, 1.000000)">
            <path d="M11,22 C14.03754,22 16.78754,20.76877 18.778155,18.778155 C20.76877,16.78754 22,14.03754 22,11 C22,7.96246 20.76877,5.21246 18.778155,3.221823 C16.78754,1.231219 14.03754,0 11,0 C7.96246,0 5.21246,1.231219 3.221823,3.221823 C1.231219,5.21246 0,7.96246 0,11 C0,14.03754 1.231219,16.78754 3.221823,18.778155 C5.21246,20.76877 7.96246,22 11,22 Z" id="Path" stroke="#FFFFFF" stroke-width="2" stroke-linejoin="round"></path>
            <path d="M11,3.85 C11.759385,3.85 12.375,4.465615 12.375,5.225 C12.375,5.984385 11.759385,6.6 11,6.6 C10.240615,6.6 9.625,5.984385 9.625,5.225 C9.625,4.465615 10.240615,3.85 11,3.85 Z" id="Path" fill="#FFFFFF" fill-rule="nonzero"></path>
            <polyline id="Path" stroke="#FFFFFF" stroke-width="2" stroke-linecap="round" stroke-linejoin="round" points="11.275 16.5 11.275 8.8 10.725 8.8 10.175 8.8"></polyline>
            <line x1="9.35" y1="16.5" x2="13.2" y2="16.5" id="Path" stroke="#FFFFFF" stroke-width="2" stroke-linecap="round" stroke-linejoin="round"></line>
        </g>
    </g>
</svg>