<?xml version="1.0" encoding="UTF-8"?>
<svg width="22px" height="5px" viewBox="0 0 22 5" version="1.1" xmlns="http://www.w3.org/2000/svg" xmlns:xlink="http://www.w3.org/1999/xlink">
    <title>ic_option_more</title>
    <g id="Page-1" stroke="none" stroke-width="1" fill="none" fill-rule="evenodd">
        <g id="ic_option_more" transform="translate(0.000000, 0.500000)" fill="#FFFFFF" fill-rule="nonzero">
            <path d="M4.4,2.2 C4.4,3.41495 3.41495,4.4 2.2,4.4 C0.98505,4.4 0,3.41495 0,2.2 C0,0.98505 0.98505,0 2.2,0 C3.41495,0 4.4,0.98505 4.4,2.2 Z" id="Path"></path>
            <path d="M13.2,2.2 C13.2,3.41495 12.21495,4.4 11,4.4 C9.78505,4.4 8.8,3.41495 8.8,2.2 C8.8,0.98505 9.78505,0 11,0 C12.21495,0 13.2,0.98505 13.2,2.2 Z" id="Path"></path>
            <path d="M22,2.2 C22,3.41495 21.01495,4.4 19.8,4.4 C18.58505,4.4 17.6,3.41495 17.6,2.2 C17.6,0.98505 18.58505,0 19.8,0 C21.01495,0 22,0.98505 22,2.2 Z" id="Path"></path>
        </g>
    </g>
</svg>