<?xml version="1.0" encoding="UTF-8"?>
<svg width="22px" height="19px" viewBox="0 0 22 19" version="1.1" xmlns="http://www.w3.org/2000/svg" xmlns:xlink="http://www.w3.org/1999/xlink">
    <title>visibility-off</title>
    <g id="Page-1" stroke="none" stroke-width="1" fill="none" fill-rule="evenodd">
        <g id="visibility-off" fill="#FFFFFF" fill-rule="nonzero">
            <path d="M10.8832941,6.00416198 L11.0243919,6.00416198 C12.6665302,6.00416198 14.0264729,7.36485518 14.0264729,9.00624296 L14.0264729,9.19387303 L10.8832941,6.00416198 Z M6.56780268,6.801965 C6.23907481,7.45867021 6.0049125,8.20919046 6.0049125,9.00699348 C6.0049125,11.7749122 8.25647324,14.0264729 11.0243919,14.0264729 C11.8221949,14.0264729 12.5727152,13.7915601 13.2294204,13.4635827 L11.6810971,11.9152594 C11.4934671,11.9625422 11.2585542,12.0090745 11.0243919,12.0090745 C9.38225361,12.0090745 8.02231092,10.6483813 8.02231092,9.00699348 C8.02231092,8.77208065 8.0695937,8.53791833 8.11612595,8.35028827 L6.56780268,6.801965 Z M1.03271586,1.26687818 L2.29959404,-1.33319177e-15 L20.0306349,17.7310408 L18.7637567,18.997919 C17.6387268,17.887149 16.5061918,16.7838843 15.3864156,15.6671102 C14.0257224,16.2300003 12.5719647,16.5114454 11.0236414,16.5114454 C6.00416198,16.5114454 1.73595333,13.4155494 0,9.00624296 C0.797803023,7.03612732 2.11121345,5.34745676 3.75260123,4.03404633 C2.83771705,3.11991267 1.93934432,2.18851704 1.03196534,1.26612766 L1.03271586,1.26687818 Z M11.0236414,3.98751407 C10.3669362,3.98751407 9.75676321,4.12861188 9.19387303,4.3627742 L7.03612732,2.20502849 C8.25572272,1.73595333 9.61641592,1.50104049 11.0236414,1.50104049 C16.0431208,1.50104049 20.2647972,4.59693651 22,9.00624296 C21.2494798,10.8825436 20.0764166,12.4773991 18.5753761,13.7442773 L15.6671102,10.8360113 C15.902023,10.2731211 16.0423703,9.66294818 16.0423703,9.00624296 C16.0423703,6.23832429 13.7908095,3.98676355 11.0228909,3.98676355 L11.0236414,3.98751407 Z" id="Shape"></path>
        </g>
    </g>
</svg>